<mxfile host="app.diagrams.net" agent="Mozilla/5.0 (Windows NT 10.0; Win64; x64) AppleWebKit/537.36 (KHTML, like Gecko) Chrome/132.0.0.0 YaBrowser/25.2.0.0 Safari/537.36" version="26.0.15">
  <diagram name="Страница — 1" id="ul4SOHhkwBpbO41a2cKk">
    <mxGraphModel dx="1829" dy="567" grid="1" gridSize="10" guides="1" tooltips="1" connect="1" arrows="1" fold="1" page="1" pageScale="1" pageWidth="827" pageHeight="1169" math="0" shadow="0">
      <root>
        <mxCell id="0" />
        <mxCell id="1" parent="0" />
        <mxCell id="pQ25pNIWAGavzDbKCOu4-1" value="Корень&lt;div&gt;33&lt;/div&gt;" style="ellipse;whiteSpace=wrap;html=1;" vertex="1" parent="1">
          <mxGeometry x="210" y="20" width="140" height="60" as="geometry" />
        </mxCell>
        <mxCell id="pQ25pNIWAGavzDbKCOu4-2" value="E*-D*&lt;div&gt;132&lt;/div&gt;" style="ellipse;whiteSpace=wrap;html=1;" vertex="1" parent="1">
          <mxGeometry x="130" y="110" width="140" height="60" as="geometry" />
        </mxCell>
        <mxCell id="pQ25pNIWAGavzDbKCOu4-3" value="E-D&lt;div&gt;33&lt;/div&gt;" style="ellipse;whiteSpace=wrap;html=1;" vertex="1" parent="1">
          <mxGeometry x="300" y="110" width="140" height="60" as="geometry" />
        </mxCell>
        <mxCell id="pQ25pNIWAGavzDbKCOu4-4" value="A-E&lt;br&gt;&lt;div&gt;33&lt;/div&gt;" style="ellipse;whiteSpace=wrap;html=1;" vertex="1" parent="1">
          <mxGeometry x="220" y="200" width="140" height="60" as="geometry" />
        </mxCell>
        <mxCell id="pQ25pNIWAGavzDbKCOu4-5" value="A*-E*&lt;div&gt;80&lt;/div&gt;" style="ellipse;whiteSpace=wrap;html=1;" vertex="1" parent="1">
          <mxGeometry x="390" y="200" width="140" height="60" as="geometry" />
        </mxCell>
        <mxCell id="pQ25pNIWAGavzDbKCOu4-6" value="C-B&lt;br&gt;&lt;div&gt;33&lt;/div&gt;" style="ellipse;whiteSpace=wrap;html=1;" vertex="1" parent="1">
          <mxGeometry x="140" y="290" width="140" height="60" as="geometry" />
        </mxCell>
        <mxCell id="pQ25pNIWAGavzDbKCOu4-7" value="C*-B*&lt;br&gt;&lt;div&gt;81&lt;/div&gt;" style="ellipse;whiteSpace=wrap;html=1;" vertex="1" parent="1">
          <mxGeometry x="300" y="290" width="140" height="60" as="geometry" />
        </mxCell>
        <mxCell id="pQ25pNIWAGavzDbKCOu4-8" value="B-A&lt;div&gt;33&lt;/div&gt;" style="ellipse;whiteSpace=wrap;html=1;" vertex="1" parent="1">
          <mxGeometry x="40" y="380" width="140" height="60" as="geometry" />
        </mxCell>
        <mxCell id="pQ25pNIWAGavzDbKCOu4-9" value="B*-A*&lt;div&gt;INF&lt;/div&gt;" style="ellipse;whiteSpace=wrap;html=1;" vertex="1" parent="1">
          <mxGeometry x="220" y="380" width="140" height="60" as="geometry" />
        </mxCell>
        <mxCell id="pQ25pNIWAGavzDbKCOu4-10" value="C-D&lt;div&gt;33&lt;/div&gt;" style="ellipse;whiteSpace=wrap;html=1;" vertex="1" parent="1">
          <mxGeometry x="-40" y="480" width="140" height="60" as="geometry" />
        </mxCell>
        <mxCell id="pQ25pNIWAGavzDbKCOu4-11" value="C*-D*&lt;div&gt;INF&lt;/div&gt;" style="ellipse;whiteSpace=wrap;html=1;" vertex="1" parent="1">
          <mxGeometry x="110" y="480" width="140" height="60" as="geometry" />
        </mxCell>
        <mxCell id="pQ25pNIWAGavzDbKCOu4-12" value="" style="endArrow=classic;html=1;rounded=0;exitX=0.5;exitY=1;exitDx=0;exitDy=0;entryX=0.5;entryY=0;entryDx=0;entryDy=0;" edge="1" parent="1" source="pQ25pNIWAGavzDbKCOu4-1" target="pQ25pNIWAGavzDbKCOu4-2">
          <mxGeometry width="50" height="50" relative="1" as="geometry">
            <mxPoint x="390" y="320" as="sourcePoint" />
            <mxPoint x="440" y="270" as="targetPoint" />
          </mxGeometry>
        </mxCell>
        <mxCell id="pQ25pNIWAGavzDbKCOu4-13" value="" style="endArrow=classic;html=1;rounded=0;exitX=0.5;exitY=1;exitDx=0;exitDy=0;entryX=0.5;entryY=0;entryDx=0;entryDy=0;" edge="1" parent="1" source="pQ25pNIWAGavzDbKCOu4-1" target="pQ25pNIWAGavzDbKCOu4-3">
          <mxGeometry width="50" height="50" relative="1" as="geometry">
            <mxPoint x="290" y="110" as="sourcePoint" />
            <mxPoint x="180" y="130" as="targetPoint" />
          </mxGeometry>
        </mxCell>
        <mxCell id="pQ25pNIWAGavzDbKCOu4-14" value="" style="endArrow=classic;html=1;rounded=0;exitX=0.5;exitY=1;exitDx=0;exitDy=0;entryX=0.5;entryY=0;entryDx=0;entryDy=0;" edge="1" parent="1" source="pQ25pNIWAGavzDbKCOu4-3" target="pQ25pNIWAGavzDbKCOu4-4">
          <mxGeometry width="50" height="50" relative="1" as="geometry">
            <mxPoint x="290" y="90" as="sourcePoint" />
            <mxPoint x="380" y="120" as="targetPoint" />
          </mxGeometry>
        </mxCell>
        <mxCell id="pQ25pNIWAGavzDbKCOu4-15" value="" style="endArrow=classic;html=1;rounded=0;exitX=0.5;exitY=1;exitDx=0;exitDy=0;entryX=0.5;entryY=0;entryDx=0;entryDy=0;" edge="1" parent="1" source="pQ25pNIWAGavzDbKCOu4-3" target="pQ25pNIWAGavzDbKCOu4-5">
          <mxGeometry width="50" height="50" relative="1" as="geometry">
            <mxPoint x="380" y="180" as="sourcePoint" />
            <mxPoint x="340" y="220" as="targetPoint" />
          </mxGeometry>
        </mxCell>
        <mxCell id="pQ25pNIWAGavzDbKCOu4-16" value="" style="endArrow=classic;html=1;rounded=0;entryX=0.5;entryY=0;entryDx=0;entryDy=0;exitX=0.5;exitY=1;exitDx=0;exitDy=0;" edge="1" parent="1" source="pQ25pNIWAGavzDbKCOu4-4" target="pQ25pNIWAGavzDbKCOu4-6">
          <mxGeometry width="50" height="50" relative="1" as="geometry">
            <mxPoint x="290" y="270" as="sourcePoint" />
            <mxPoint x="300" y="210" as="targetPoint" />
          </mxGeometry>
        </mxCell>
        <mxCell id="pQ25pNIWAGavzDbKCOu4-17" value="" style="endArrow=classic;html=1;rounded=0;entryX=0.5;entryY=0;entryDx=0;entryDy=0;exitX=0.5;exitY=1;exitDx=0;exitDy=0;" edge="1" parent="1" source="pQ25pNIWAGavzDbKCOu4-4" target="pQ25pNIWAGavzDbKCOu4-7">
          <mxGeometry width="50" height="50" relative="1" as="geometry">
            <mxPoint x="300" y="270" as="sourcePoint" />
            <mxPoint x="190" y="300" as="targetPoint" />
          </mxGeometry>
        </mxCell>
        <mxCell id="pQ25pNIWAGavzDbKCOu4-18" value="" style="endArrow=classic;html=1;rounded=0;entryX=0.5;entryY=0;entryDx=0;entryDy=0;exitX=0.5;exitY=1;exitDx=0;exitDy=0;" edge="1" parent="1" source="pQ25pNIWAGavzDbKCOu4-6" target="pQ25pNIWAGavzDbKCOu4-8">
          <mxGeometry width="50" height="50" relative="1" as="geometry">
            <mxPoint x="300" y="270" as="sourcePoint" />
            <mxPoint x="220" y="300" as="targetPoint" />
          </mxGeometry>
        </mxCell>
        <mxCell id="pQ25pNIWAGavzDbKCOu4-19" value="" style="endArrow=classic;html=1;rounded=0;entryX=0.5;entryY=0;entryDx=0;entryDy=0;exitX=0.5;exitY=1;exitDx=0;exitDy=0;" edge="1" parent="1" source="pQ25pNIWAGavzDbKCOu4-6" target="pQ25pNIWAGavzDbKCOu4-9">
          <mxGeometry width="50" height="50" relative="1" as="geometry">
            <mxPoint x="220" y="360" as="sourcePoint" />
            <mxPoint x="120" y="390" as="targetPoint" />
          </mxGeometry>
        </mxCell>
        <mxCell id="pQ25pNIWAGavzDbKCOu4-20" value="" style="endArrow=classic;html=1;rounded=0;entryX=0.5;entryY=0;entryDx=0;entryDy=0;exitX=0.5;exitY=1;exitDx=0;exitDy=0;" edge="1" parent="1" source="pQ25pNIWAGavzDbKCOu4-8" target="pQ25pNIWAGavzDbKCOu4-10">
          <mxGeometry width="50" height="50" relative="1" as="geometry">
            <mxPoint x="220" y="360" as="sourcePoint" />
            <mxPoint x="120" y="390" as="targetPoint" />
          </mxGeometry>
        </mxCell>
        <mxCell id="pQ25pNIWAGavzDbKCOu4-21" value="" style="endArrow=classic;html=1;rounded=0;entryX=0.5;entryY=0;entryDx=0;entryDy=0;exitX=0.5;exitY=1;exitDx=0;exitDy=0;" edge="1" parent="1" source="pQ25pNIWAGavzDbKCOu4-8" target="pQ25pNIWAGavzDbKCOu4-11">
          <mxGeometry width="50" height="50" relative="1" as="geometry">
            <mxPoint x="120" y="450" as="sourcePoint" />
            <mxPoint x="10" y="490" as="targetPoint" />
          </mxGeometry>
        </mxCell>
      </root>
    </mxGraphModel>
  </diagram>
</mxfile>
